<?xml version="1.0" encoding="UTF-8"?>
<svg id="Layer_2" data-name="Layer 2" xmlns="http://www.w3.org/2000/svg" viewBox="0 0 145.35 145.35">
  <defs>
    <style>
      .cls-1 {
        fill: none;
        stroke: #335175;
        stroke-linecap: round;
        stroke-linejoin: round;
        stroke-width: 6px;
      }
    </style>
  </defs>
  <g id="Layer_1-2" data-name="Layer 1">
    <g id="industry">
      <g>
        <g>
          <path class="cls-1" d="M106.39,72.68h0c0-3.72,3.02-6.74,6.74-6.74h0c3.72,0,6.74,3.02,6.74,6.74h0c0,1.44-.57,2.82-1.59,3.83l-11.9,11.9h13.49"/>
          <path class="cls-1" d="M67.24,65.93c-1.74,3.96-5.71,6.74-10.29,6.74h0c-6.18,0-11.24-5.06-11.24-11.24v-6.74c0-6.18,5.06-11.24,11.24-11.24h0c4.59,0,8.56,2.79,10.3,6.75"/>
          <path class="cls-1" d="M88.41,72.68h0c-6.18,0-11.24-5.06-11.24-11.24v-6.74c0-6.18,5.06-11.24,11.24-11.24h0c6.18,0,11.24,5.06,11.24,11.24v6.74c0,6.18-5.06,11.24-11.24,11.24Z"/>
        </g>
        <g>
          <path class="cls-1" d="M133.36,97.4c0-29.22,8.99-23.85,8.99-44.95S125.24,14.24,104.14,14.24c-5.37,0-10.48,1.12-15.12,3.12-6.1-8.68-16.17-14.36-27.58-14.36-17.15,0-31.27,12.81-33.4,29.37-.84-.1-1.69-.16-2.56-.16-12.41,0-22.48,10.06-22.48,22.48,0,10.55,7.28,19.38,17.09,21.8,1.9,16.82,16.16,29.9,33.48,29.9,21.35,0,21.35-17.98,41.58-8.99"/>
          <path class="cls-1" d="M27.72,77.06c-.74.07-1.49.11-2.25.11-12.41,0-22.48-10.06-22.48-22.48"/>
          <path class="cls-1" d="M104.14,14.24c-8.4,0-16.16,2.71-22.47,7.3"/>
          <path class="cls-1" d="M25.48,32.22c3.2,0,6.24.67,8.99,1.87"/>
        </g>
      </g>
      <g>
        <path class="cls-1" d="M142.35,142.35l-2.25-31.47s-11.24,2.25-24.72,2.25-24.72-2.25-24.72-2.25l-2.25,31.47"/>
        <line class="cls-1" x1="141.71" y1="133.36" x2="115.38" y2="133.36"/>
      </g>
    </g>
  </g>
</svg>