<?xml version="1.0" encoding="UTF-8"?>
<svg id="Layer_2" data-name="Layer 2" xmlns="http://www.w3.org/2000/svg" viewBox="0 0 152.1 139.33">
  <defs>
    <style>
      .cls-1 {
        fill: none;
        stroke: #046635;
        stroke-miterlimit: 10;
        stroke-width: 6px;
      }
    </style>
  </defs>
  <g id="Layer_1-2" data-name="Layer 1">
    <g>
      <path class="cls-1" d="M32.76,134.29L3.61,97.2c-.97-1.24-.76-3.03.48-4.01l15.86-12.46c2.31-1.82,5.66-1.41,7.47.9l28.68,36.5c1.23,1.57.96,3.85-.61,5.08l-15.25,11.99c-2.31,1.82-5.66,1.41-7.47-.9Z"/>
      <path class="cls-1" d="M56.15,117.44l46.27-3.74c6.66-.75,7.99-1.69,12.48-6.04l32.91-35.32c1.82-1.96,1.72-5.02-.24-6.85h0c-4.55-4.24-11.59-4.28-16.19-.1l-14.63,13.31-1.23,1.12"/>
      <path class="cls-1" d="M71.23,95.55l31.6-2.35c3.4-.25,5.99-3.15,5.87-6.56h0c-.18-5.2-4.5-9.28-9.7-9.19l-23.09.43s-8.22-9.84-25.08-8.5c-10.97.87-16.65,5.36-23.07,12.25"/>
      <path class="cls-1" d="M39.52,118.75c0,.53-.43.96-.96.96s-.96-.43-.96-.96.43-.96.96-.96.96.43.96.96Z"/>
      <polyline class="cls-1" points="50.36 60.97 50.36 40.82 65.9 40.82"/>
      <polyline class="cls-1" points="74.93 66.93 74.93 21.91 90.46 21.91"/>
      <polyline class="cls-1" points="99.49 68.13 99.49 3 124.06 3 124.06 59.18"/>
    </g>
  </g>
</svg>