<?xml version="1.0" encoding="UTF-8"?>
<svg id="Layer_2" data-name="Layer 2" xmlns="http://www.w3.org/2000/svg" viewBox="0 0 160.41 168.25">
  <defs>
    <style>
      .cls-1, .cls-2 {
        fill: none;
        stroke-linecap: round;
        stroke-width: 5px;
      }

      .cls-1, .cls-2, .cls-3 {
        stroke: #335175;
      }

      .cls-1, .cls-3 {
        stroke-miterlimit: 10;
      }

      .cls-2 {
        stroke-linejoin: round;
      }

      .cls-3 {
        fill: #335175;
      }
    </style>
  </defs>
  <g id="Layer_1-2" data-name="Layer 1">
    <g>
      <line class="cls-1" x1="130.87" y1="41.54" x2="35.15" y2="137.26"/>
      <g>
        <g>
          <path class="cls-3" d="M48.25,31.04c.14-.11.28-.21.4-.34,1.38-1.38,1.37-3.36,1.36-6.36-.01-3.27-1.69-4.63-3.17-5.83-1.36-1.1-2.64-2.15-3.33-4.92-1.39-5.58-6.64-6.4-6.87-6.43-.15-.02-.29,0-.43.02-.13-.02-.26-.04-.4-.02-.22.03-5.48.85-6.87,6.43-.69,2.77-1.97,3.82-3.33,4.92-1.48,1.2-3.15,2.56-3.17,5.83-.01,3-.02,4.99,1.36,6.36.12.12.26.23.4.34-2.6,2.93-4.07,6.72-4.07,10.66v26.97c0,8.87,7.22,16.09,16.09,16.09s16.09-7.22,16.09-16.09v-26.97c0-3.94-1.47-7.73-4.07-10.66ZM36.23,40.01l-7.35-7.76h14.71l-7.35,7.76ZM25.4,24.35c0-1.88.74-2.48,2.08-3.56,1.52-1.23,3.41-2.77,4.33-6.49.89-3.59,4.21-4.19,4.43-4.23.21.03,3.53.63,4.42,4.23.93,3.73,2.81,5.26,4.33,6.49,1.34,1.09,2.07,1.68,2.08,3.56,0,2.1.01,3.76-.5,4.28-.61.61-2.72.68-4.26.68h-4.61v-9.61c0-.81-.66-1.47-1.47-1.47s-1.47.66-1.47,1.47v9.61h-4.61c-1.54,0-3.65-.07-4.26-.68-.51-.51-.51-2.18-.5-4.28ZM49.38,68.67c0,7.25-5.9,13.15-13.15,13.15s-13.15-5.9-13.15-13.15v-26.97c0-3,1.05-5.89,2.92-8.21l8.76,9.24v27.68c0,.81.66,1.47,1.47,1.47s1.47-.66,1.47-1.47v-27.68l8.76-9.24c1.87,2.32,2.92,5.21,2.92,8.21v26.97Z"/>
          <path class="cls-3" d="M43.9,44.74c-.81,0-1.47.66-1.47,1.47v23.46c0,3.42-2.78,6.2-6.2,6.2s-6.2-2.78-6.2-6.2v-23.46c0-.81-.66-1.47-1.47-1.47s-1.47.66-1.47,1.47v23.46c0,5.04,4.1,9.14,9.14,9.14s9.14-4.1,9.14-9.14v-23.46c0-.81-.66-1.47-1.47-1.47Z"/>
        </g>
        <g>
          <g>
            <path class="cls-3" d="M48.83,30.02c-.64,0-1.22-.42-1.41-1.06-.23-.78.22-1.6,1-1.82l7.71-2.26,4.54-14.56c.09-.3.28-.56.53-.74l3.8-2.82c.65-.48,1.57-.35,2.06.31.48.65.35,1.57-.3,2.06l-3.41,2.53-4.63,14.86c-.15.47-.52.83-.99.97l-8.46,2.48c-.14.04-.28.06-.41.06Z"/>
            <path class="cls-3" d="M43.13,16.3c-.44,0-.87-.19-1.16-.56-.5-.64-.39-1.56.25-2.06l5.16-4.06,2.85-6.52c.11-.25.28-.46.5-.61l2.45-1.72c.66-.47,1.58-.31,2.05.36.47.66.3,1.58-.36,2.05l-2.11,1.48-2.84,6.48c-.1.22-.25.42-.44.57l-5.45,4.29c-.27.21-.59.31-.91.31Z"/>
            <path class="cls-3" d="M70.49,62c-.21,0-.42-.04-.62-.14l-4.35-2.02c-.34-.16-.6-.43-.74-.78l-6.23-15.34-7.57-2.37c-.78-.24-1.21-1.07-.96-1.84.24-.77,1.07-1.21,1.84-.96l8.23,2.57c.42.13.76.44.92.85l6.28,15.45,3.82,1.78c.74.34,1.06,1.22.71,1.95-.25.54-.78.85-1.34.85Z"/>
            <path class="cls-3" d="M69.32,84.76c-.27,0-.54-.07-.78-.23l-4.78-3.01c-.28-.18-.5-.45-.61-.77l-5.49-16.12-6.73-3.04c-.74-.33-1.07-1.21-.73-1.95.33-.74,1.2-1.07,1.95-.73l7.31,3.31c.37.17.65.48.79.87l5.53,16.23,4.34,2.73c.69.43.89,1.34.46,2.03-.28.44-.76.69-1.24.69Z"/>
          </g>
          <g>
            <path class="cls-3" d="M23.63,30.02c-.14,0-.28-.02-.41-.06l-8.46-2.48c-.47-.14-.84-.5-.99-.97l-4.63-14.86-3.41-2.53c-.65-.48-.79-1.4-.31-2.06.49-.65,1.4-.79,2.06-.31l3.8,2.82c.25.19.43.45.53.74l4.54,14.56,7.71,2.26c.78.23,1.23,1.04,1,1.82-.19.64-.77,1.06-1.41,1.06Z"/>
            <path class="cls-3" d="M29.33,16.3c-.32,0-.64-.1-.91-.31l-5.45-4.29c-.19-.15-.34-.34-.44-.57l-2.84-6.48-2.11-1.48c-.66-.47-.83-1.38-.36-2.05.46-.67,1.38-.83,2.05-.36l2.45,1.72c.22.15.39.37.5.61l2.85,6.52,5.16,4.06c.64.5.75,1.43.25,2.06-.29.37-.72.56-1.16.56Z"/>
            <path class="cls-3" d="M1.97,62c-.55,0-1.08-.31-1.33-.85-.34-.74-.02-1.61.71-1.95l3.82-1.78,6.28-15.45c.17-.41.5-.72.92-.85l8.23-2.57c.77-.24,1.6.19,1.84.96.24.78-.19,1.6-.96,1.84l-7.57,2.37-6.23,15.34c-.14.34-.4.62-.74.78l-4.35,2.02c-.2.09-.41.14-.62.14Z"/>
            <path class="cls-3" d="M3.14,84.76c-.49,0-.97-.24-1.24-.69-.43-.69-.23-1.59.46-2.03l4.34-2.73,5.53-16.23c.13-.38.42-.7.79-.87l7.31-3.31c.74-.34,1.61,0,1.95.73.33.74,0,1.61-.73,1.95l-6.73,3.04-5.49,16.12c-.11.32-.32.59-.61.77l-4.78,3.01c-.24.15-.51.23-.78.23Z"/>
          </g>
        </g>
      </g>
      <path class="cls-2" d="M138.84,113.92c4.29-11.1-.17-25.19-16.76-36.98,11.27,20.58-24.78,36.17-25.16,58.37-.15,8.34,3.52,19.51,18.18,28.46.88.54,1.83-.56,1.18-1.36-5.06-6.2-8.39-15.27-.03-25.42-1.78,15.18,14.63,11.65,8.97.54-3.66-7.18-3.08-16.01,5.22-21.82-6.59,19.1,13.5,16.46,13.5,32.37,0,7.59-3.72,11.77-7.61,15.95-.73.79.1,2.03,1.1,1.64,15.2-5.9,32.15-31.29,9.44-55.77,5.72,17.36-12.92,16.66-8.03,4.02Z"/>
    </g>
  </g>
</svg>