<?xml version="1.0" encoding="UTF-8"?>
<svg id="Layer_2" data-name="Layer 2" xmlns="http://www.w3.org/2000/svg" viewBox="0 0 154.68 145.97">
  <defs>
    <style>
      .cls-1 {
        fill: none;
        stroke: #046635;
        stroke-linecap: round;
        stroke-linejoin: round;
        stroke-width: 6px;
      }
    </style>
  </defs>
  <g id="Layer_1-2" data-name="Layer 1">
    <g>
      <line class="cls-1" x1="41.9" y1="74.93" x2="41.9" y2="126.29"/>
      <line class="cls-1" x1="61.14" y1="126.29" x2="61.14" y2="56"/>
      <line class="cls-1" x1="22.67" y1="93.85" x2="22.67" y2="126.29"/>
      <line class="cls-1" x1="41.9" y1="126.29" x2="41.9" y2="74.93"/>
      <line class="cls-1" x1="80.38" y1="126.29" x2="80.38" y2="70.04"/>
      <line class="cls-1" x1="99.61" y1="64.55" x2="99.61" y2="126.29"/>
      <line class="cls-1" x1="118.85" y1="45.01" x2="118.85" y2="126.29"/>
      <line class="cls-1" x1="138.09" y1="38.9" x2="138.09" y2="126.29"/>
      <polyline class="cls-1" points="138.09 3 87.38 53.72 63.6 30.07 18.53 75.01"/>
      <polyline class="cls-1" points="3 21.51 3 142.97 151.68 142.97"/>
      <polyline class="cls-1" points="119.48 3.02 138.09 3.02 138.09 21.62"/>
      <line class="cls-1" x1="31.85" y1="126.29" x2="41.9" y2="126.29"/>
      <line class="cls-1" x1="51.09" y1="126.29" x2="61.14" y2="126.29"/>
      <line class="cls-1" x1="70.32" y1="126.29" x2="80.38" y2="126.29"/>
      <line class="cls-1" x1="89.56" y1="126.29" x2="99.61" y2="126.29"/>
      <line class="cls-1" x1="108.8" y1="126.29" x2="118.85" y2="126.29"/>
      <line class="cls-1" x1="128.04" y1="126.29" x2="138.09" y2="126.29"/>
    </g>
  </g>
</svg>