<?xml version="1.0" encoding="UTF-8"?>
<svg id="Layer_2" data-name="Layer 2" xmlns="http://www.w3.org/2000/svg" viewBox="0 0 140.76 144.21">
  <defs>
    <style>
      .cls-1 {
        fill: none;
        stroke: #335175;
        stroke-linecap: round;
        stroke-linejoin: round;
        stroke-width: 6px;
      }
    </style>
  </defs>
  <g id="Layer_1-2" data-name="Layer 1">
    <g>
      <circle class="cls-1" cx="111.74" cy="20.39" r="11.3" transform="translate(56.6 119.7) rotate(-71.3)"/>
      <path class="cls-1" d="M107.67,42.64c.69-.02,3.28-.02,4.01-.02,7.02.02,12.57.87,16.43,1.99,5.99,1.74,9.88,6.92,9.64,12.54l-.61,21.21c-.11,2.6-.95,5.13-2.42,7.38"/>
      <path class="cls-1" d="M97.88,100.08l.08,27.82v1.59c0,2.41,1.95,4.35,4.35,4.35h4.64c2.41,0,4.35-1.95,4.35-4.35v-2.11"/>
      <polyline class="cls-1" points="111.31 127.9 111.46 96.21 111.31 127.91"/>
      <path class="cls-1" d="M125.4,60.26l-.75,67.71v1.52c0,2.41-1.95,4.35-4.35,4.35h-4.63c-2.41,0-4.35-1.95-4.35-4.35v-1.58"/>
      <circle class="cls-1" cx="29.02" cy="20.39" r="11.3" transform="translate(5.13 46.61) rotate(-82.75)"/>
      <path class="cls-1" d="M33.09,42.64c-.69-.02-3.28-.02-4.01-.02-7.02.02-12.57.87-16.43,1.99-5.99,1.74-9.88,6.92-9.64,12.54l.61,21.21c.11,2.6.95,5.13,2.42,7.38"/>
      <path class="cls-1" d="M42.88,100.08l-.08,27.82v1.59c0,2.41-1.95,4.35-4.35,4.35h-4.64c-2.41,0-4.35-1.95-4.35-4.35v-2.11"/>
      <polyline class="cls-1" points="29.46 127.9 29.3 96.21 29.46 127.91"/>
      <path class="cls-1" d="M15.37,60.26l.75,67.71v1.52c0,2.41,1.95,4.35,4.35,4.35h4.63c2.41,0,4.35-1.95,4.35-4.35v-1.58"/>
      <circle class="cls-1" cx="70.43" cy="16.52" r="13.52" transform="translate(26.92 74.31) rotate(-66.23)"/>
      <path class="cls-1" d="M55.03,92.35h0c-5.15.03-9.84-3.13-11.58-7.97-.55-1.54-.87-3.14-.92-4.77l-.83-23.51c-.22-6.22,4.13-11.93,10.78-13.82,4.29-1.22,10.1-2.13,17.88-2.11,7.78.02,13.57.96,17.85,2.2,6.64,1.93,10.95,7.66,10.68,13.89l-1.02,23.5c-.08,1.86-.5,3.68-1.22,5.41-1.86,4.46-6.26,7.33-11.1,7.33h0"/>
      <path class="cls-1" d="M54.95,59.63l.21,75v1.24c0,2.95,2.39,5.34,5.34,5.34h4.09c2.95,0,5.34-2.39,5.34-5.34v-1.23"/>
      <polyline class="cls-1" points="69.94 134.62 70.11 99.53 69.94 134.63"/>
      <path class="cls-1" d="M85.55,59.72l-.83,74.99v1.16c0,2.95-2.39,5.34-5.34,5.34h-4.09c-2.95,0-5.34-2.39-5.34-5.34v-1.23"/>
    </g>
  </g>
</svg>