<?xml version="1.0" encoding="UTF-8"?>
<svg id="Layer_2" data-name="Layer 2" xmlns="http://www.w3.org/2000/svg" viewBox="0 0 151.45 146.57">
  <defs>
    <style>
      .cls-1 {
        fill: none;
        stroke: #046635;
        stroke-linecap: round;
        stroke-linejoin: round;
        stroke-width: 6px;
      }
    </style>
  </defs>
  <g id="Layer_1-2" data-name="Layer 1">
    <g>
      <g>
        <path class="cls-1" d="M109.3,102.68c4.23-.43,8.33-2.26,11.57-5.49,7.47-7.46,7.47-19.56,0-27.02-3.29-3.29-7.49-5.13-11.79-5.52"/>
        <path class="cls-1" d="M109.07,114.05c5.04,0,9.24,3.59,10.18,8.36.08.42.51.68.92.56,3.1-.87,6.08-2.1,8.88-3.68.37-.21.49-.69.25-1.05-2.71-4.03-2.29-9.54,1.28-13.1,3.57-3.56,9.08-3.99,13.12-1.28.35.24.84.12,1.05-.25,1.58-2.8,2.81-5.78,3.68-8.87.12-.41-.14-.84-.57-.92-4.77-.93-8.37-5.13-8.37-10.17s3.6-9.23,8.37-10.17c.42-.08.68-.51.57-.92-.87-3.1-2.1-6.07-3.68-8.87-.21-.37-.69-.49-1.05-.25-4.03,2.71-9.55,2.28-13.11-1.28-3.57-3.56-3.99-9.07-1.28-13.1.24-.36.12-.84-.25-1.05-2.8-1.57-5.78-2.81-8.88-3.67-.41-.12-.84.14-.92.57-.94,4.76-5.14,8.36-10.18,8.36"/>
      </g>
      <path class="cls-1" d="M86.17,23.75h3.44c5.04,0,9.13,4.09,9.13,9.13v101.55c0,5.04-4.09,9.13-9.13,9.13H12.13c-5.04,0-9.13-4.09-9.13-9.13V32.89c0-5.05,4.09-9.13,9.13-9.13h3.44"/>
      <path class="cls-1" d="M68.65,31.03h-35.55c-4.02,0-7.28-3.26-7.28-7.28h0c0-4.02,3.26-7.28,7.28-7.28h35.55c4.02,0,7.27,3.26,7.28,7.27h0c0,4.02-3.26,7.28-7.28,7.28Z"/>
      <g>
        <polyline class="cls-1" points="19.64 53.6 25.86 59.82 36.07 49.61"/>
        <g>
          <line class="cls-1" x1="49.93" y1="49.61" x2="82.11" y2="49.61"/>
          <line class="cls-1" x1="49.93" y1="59.82" x2="68.7" y2="59.82"/>
        </g>
      </g>
      <g>
        <polyline class="cls-1" points="19.64 85.87 25.86 92.09 36.07 81.88"/>
        <g>
          <line class="cls-1" x1="49.93" y1="81.83" x2="82.11" y2="81.83"/>
          <line class="cls-1" x1="49.93" y1="92.04" x2="68.7" y2="92.04"/>
        </g>
      </g>
      <g>
        <polyline class="cls-1" points="19.64 118.14 25.86 124.36 36.07 114.15"/>
        <g>
          <line class="cls-1" x1="49.93" y1="114.1" x2="82.11" y2="114.1"/>
          <line class="cls-1" x1="49.93" y1="124.31" x2="68.7" y2="124.31"/>
        </g>
      </g>
      <path class="cls-1" d="M41.22,16.47v-3.82c0-5.33,4.32-9.66,9.66-9.66s9.66,4.32,9.66,9.66v3.82"/>
    </g>
  </g>
</svg>