<?xml version="1.0" encoding="UTF-8"?>
<svg id="Layer_2" data-name="Layer 2" xmlns="http://www.w3.org/2000/svg" viewBox="0 0 156.01 128.42">
  <defs>
    <style>
      .cls-1 {
        fill: #335175;
        stroke: #335175;
        stroke-miterlimit: 10;
      }
    </style>
  </defs>
  <g id="Layer_1-2" data-name="Layer 1">
    <path class="cls-1" d="M154.24,67.95c-.98-1.25-2.39-2.04-3.96-2.24l-3.14-.38c-1.5-.24-2.5-.41-3.46-2.47-.03-.06-.06-.11-.09-.17-1.96-4.58-4.96-8.85-8.95-12.72,2.47-3.92,5.53-7.31,9.13-10.09.81-.63,1.27-1.57,1.27-2.59,0-1.19-.64-2.34-1.68-3.12-3.98-3.22-9.82-4.72-15.63-4.02-5.57.67-10.38,3.23-13.59,7.24-3.04-1.14-6.22-2.08-9.49-2.83,1.56-3.18,2.43-6.72,2.43-10.38,0-13.05-10.62-23.67-23.67-23.67s-23.67,10.62-23.67,23.67c0,4.15,1.11,8.15,3.1,11.64-14.89,4.45-26.69,13-32.61,23.74-.03.05-.05.1-.07.14l-.99,2.15c-2.23-.41-7.16-.97-11.59.76-7.33-2.66-15.93,5.32-16.33,5.69-.92.86-.96,2.31-.1,3.23.86.92,2.31.96,3.23.1.05-.05,3.7-3.37,7.48-4.57-2.06,3.1-1.77,6.5-.69,8.77,1.21,2.54,3.47,4.09,5.81,4.09.29,0,.58-.02.87-.07,2.85-.48,5.37-3.04,6.13-6.23.63-2.67,0-5.29-1.73-7.5,1.96-.24,3.86-.1,5.18.08-.88,2.95-1.34,5.96-1.34,9,0,8.17,3.23,16.08,9.35,22.93.51,6.14,2.46,19.58,9.82,28.43.72.87,1.78,1.37,2.92,1.37h10.35c1.1,0,2.14-.48,2.86-1.31.72-.83,1.04-1.93.89-3.02,0-.05-.59-4.2-.74-9.43,10.7,3.4,22.88,4.52,34.47,3.17,1.49,3.6,3.31,6.69,5.41,9.22.72.87,1.78,1.37,2.92,1.37h10.35c1.1,0,2.14-.48,2.86-1.31.72-.83,1.04-1.93.89-3.02,0-.06-.79-5.6-.78-12,7.95-3.48,14.7-8.26,19.61-13.89,3-2.75,5.76-3.46,6.35-3.41l3.18.39c3.25.4,6.23-1.93,6.62-5.19l2.08-17.16c.19-1.58-.24-3.13-1.22-4.39ZM19.5,72.57c-.37,1.54-1.53,2.62-2.44,2.78-.58.1-1.35-.54-1.8-1.48-.68-1.44-.65-3.65,1.49-5.53.23-.2.47-.39.72-.56,1.72,1.4,2.44,3.09,2.04,4.79ZM83.39,5.07c10.53,0,19.1,8.57,19.1,19.1,0,7.3-4.24,14.04-10.82,17.21-2.41-.2-4.85-.32-7.32-.32-3.13,0-6.1.17-8.95.49-.06-.03-.11-.07-.17-.1-6.65-3.14-10.95-9.93-10.95-17.28,0-10.53,8.57-19.1,19.1-19.1ZM150.93,71.79l-2.08,17.16c-.09.76-.78,1.3-1.54,1.2l-3.19-.39c-2.16-.25-6.25,1.1-10.09,4.68-.06.06-.12.12-.17.18-4.73,5.47-11.43,10.08-19.38,13.34-.84.35-1.4,1.16-1.42,2.07-.12,5.85.44,11.26.69,13.32h-9.09c-1.99-2.48-3.7-5.6-5.08-9.3-.37-1-1.39-1.61-2.46-1.47-3.61.5-7.31.76-11.01.76-9.1,0-18.14-1.56-26.15-4.52-.7-.26-1.48-.16-2.09.26-.61.42-.98,1.12-.99,1.86-.05,5.46.47,10.45.71,12.41h-9.09c-6.66-8.26-8.24-21.15-8.61-26.35-.04-.52-.25-1.01-.6-1.39-5.68-6.12-8.68-13.18-8.68-20.41,0-3.14.56-6.26,1.67-9.29l1.95-4.22c5.55-10.01,16.96-17.96,31.37-21.92.91,1.04,1.92,2.01,3,2.88-4.03.88-7.8,2.11-11.3,3.74-1.14.53-1.64,1.89-1.11,3.04.39.83,1.21,1.32,2.07,1.32.32,0,.65-.07.96-.21,7.07-3.29,15.29-4.89,25.11-4.89,7.66,0,15.05,1.03,21.97,3.06,1.21.36,2.48-.34,2.83-1.55.36-1.21-.34-2.48-1.55-2.84-2.92-.86-5.92-1.54-8.98-2.05,1.27-1.07,2.41-2.27,3.42-3.58,4.19.87,8.23,2.06,12.03,3.6,1.01.41,2.18.04,2.77-.88.19-.3.4-.6.61-.88,2.46-3.22,6.29-5.29,10.78-5.83,4.28-.52,8.52.43,11.53,2.53-4.02,3.34-7.39,7.38-10.05,12.04-.53.93-.34,2.11.46,2.83,4.25,3.82,7.38,8.08,9.28,12.65.05.13.12.25.19.36,2,4.01,4.99,4.48,6.79,4.77.03,0,.06,0,.08.01l3.18.39c.37.04.69.23.92.52.23.29.33.65.28,1.02ZM127.16,60.29c-2.3,0-4.17,1.86-4.17,4.17s1.86,4.17,4.17,4.17,4.17-1.86,4.17-4.17-1.86-4.17-4.17-4.17ZM81.79,24.74v7.83c-2.04-.48-3.2-1.82-3.56-2.6-.42-.91-1.49-1.3-2.39-.89-.91.42-1.3,1.49-.89,2.39.74,1.62,2.96,4.22,6.84,4.79v2.52c0,1,.81,1.8,1.8,1.8s1.8-.81,1.8-1.8v-2.55c4.26-.59,7-3.02,7-6.41,0-4-3.34-6.13-7-7.58v-5.91c1.79.73,2.56,2.22,2.61,2.32.43.89,1.5,1.28,2.39.86.9-.42,1.29-1.49.87-2.4-.08-.17-1.75-3.64-5.87-4.56v-2.99c0-1-.81-1.8-1.8-1.8s-1.8.81-1.8,1.8v2.86c-4.41.53-7,3.29-7,5.98,0,3.18,3.76,5.12,7,6.35ZM85.4,26.17c2.38,1.13,3.39,2.25,3.39,3.65,0,1.63-1.69,2.42-3.39,2.75v-6.4ZM81.79,16.05v4.79c-3.28-1.45-3.4-2.44-3.4-2.45,0-.53.88-1.93,3.4-2.34Z"/>
  </g>
</svg>