<?xml version="1.0" encoding="UTF-8"?>
<svg id="Layer_2" data-name="Layer 2" xmlns="http://www.w3.org/2000/svg" viewBox="0 0 136.6 143">
  <defs>
    <style>
      .cls-1 {
        fill: none;
        stroke: #335175;
        stroke-linecap: round;
        stroke-linejoin: round;
        stroke-width: 6px;
      }
    </style>
  </defs>
  <g id="Layer_1-2" data-name="Layer 1">
    <g>
      <circle class="cls-1" cx="31.59" cy="16.45" r="13.45" transform="translate(.97 34.64) rotate(-58.21)"/>
      <path class="cls-1" d="M16,91.42c-5.12.03-9.52-3.11-11.25-7.93-.55-1.53-.86-3.13-.92-4.75l-.83-23.39c-.22-6.19,4.11-11.87,10.72-13.75,4.27-1.21,10.05-2.12,17.79-2.1,7.74.02,13.51.96,17.76,2.19,2.47.72,4.69,1.96,6.46,3.57"/>
      <path class="cls-1" d="M31.28,98.56l-.15,36.46c-.01,2.75,2.21,4.98,4.96,4.98h4.29c2.69,0,4.89-2.15,4.96-4.84l1.05-32.25"/>
      <path class="cls-1" d="M15.6,58.85l1.31,76.27c.05,2.71,2.25,4.88,4.96,4.88h4.28c2.74,0,4.96-2.22,4.96-4.96v-8.3"/>
      <circle class="cls-1" cx="105.27" cy="16.45" r="13.45" transform="translate(59.69 112.76) rotate(-73.56)"/>
      <path class="cls-1" d="M76.97,51.14c1.36-4.43,5.37-8.1,10.44-9.54,4.27-1.21,10.05-2.12,17.79-2.1,7.74.02,13.51.96,17.76,2.19,6.61,1.92,10.89,7.62,10.62,13.82l-1.02,23.38c-.08,1.85-.49,3.66-1.21,5.38-1.85,4.44-6.23,7.3-11.04,7.3h0"/>
      <path class="cls-1" d="M104.95,107.98l-.14,27.04c-.01,2.75,2.21,4.98,4.96,4.98h4.29c2.69,0,4.89-2.15,4.96-4.84l1.89-76.22"/>
      <path class="cls-1" d="M90.16,118.48l.43,16.64c.05,2.71,2.25,4.88,4.96,4.88h4.28c2.74,0,4.96-2.22,4.96-4.96v-8.3"/>
      <path class="cls-1" d="M48.69,79.45l-.55,9.12-17.44-12.14c-3.05-2.12-3.15-6.6-.2-8.86l17.64-13.52.55,10.78h28.32"/>
      <path class="cls-1" d="M60.2,94.06h27.3l.55,11.34,17.8-14.06c2.89-2.28,2.76-6.71-.27-8.82l-17.53-12.2-.55,9.12h-38.26"/>
    </g>
  </g>
</svg>